<?xml version="1.0" encoding="UTF-8" standalone="no"?>
<svg version="1.1" preserveAspectRatio="xMidYMid meet" xmlns="http://www.w3.org/2000/svg" xmlns:xlink="http://www.w3.org/1999/xlink" viewBox="0 0 1000 1000" width="1000" height="1000">
	<defs>
		<path d="M160.787,375.421 A5.463,5.463 0 0 1 166.249,375.421 L270.041,435.345 A5.463,5.463 0 0 1 272.772,440.076 L272.772,559.924 A5.463,5.463 0 0 1 270.041,564.655 L166.249,624.579 A5.463,5.463 0 0 1 160.787,624.579 L56.995,564.655 A5.463,5.463 0 0 1 54.264,559.924 L54.264,440.076 A5.463,5.463 0 0 1 56.995,435.345 Z" stroke-linecap="round" stroke-linejoin="round" stroke-miterlimit="25" id="def-143f4dc9-58d6-47a1-a51d-64863d787e4e"></path>
		<g id="def-f4c1cde8-d606-4fa4-beea-fbc01eb3f9b6">
			<path d="M70.268,500.000 A93.250,93.250 0 1 0 256.768,500.000 A93.250,93.250 0 1 0 70.268,500.000 Z M252.835,500.000 A89.317,89.317 0 1 1 74.201,500.000 A89.317,89.317 0 1 1 252.835,500.000 Z M79.381,500.000 A84.137,84.137 0 1 0 247.655,500.000 A84.137,84.137 0 1 0 79.381,500.000 Z" fill="#fff"></path>
			<use xlink:href="#def-4f675e10-ca0e-47ff-b315-0e63b34a75c0"></use>
		</g>
		<path d="M183.707,514.353 L182.040,514.353 C182.159,514.353,175.846,464.207,175.846,464.088 C175.846,457.061,172.987,454.083,168.461,454.083 C165.722,454.083,163.578,455.274,162.148,457.775 C161.195,457.537,160.362,457.418,159.528,457.418 C155.597,457.418,153.096,459.919,152.381,463.016 C147.259,473.140,135.944,525.668,135.944,538.294 C135.944,539.366,136.063,540.081,136.182,540.557 C137.016,543.297,137.850,545.917,140.113,545.917 C140.947,545.917,142.138,545.441,143.686,544.369 C144.520,544.726,145.473,544.845,146.307,544.845 C150.237,544.845,151.547,542.106,152.381,538.294 C152.619,537.222,153.572,533.768,154.644,529.003 L167.866,529.003 L167.866,531.862 C167.866,537.699,171.201,543.059,176.203,543.059 C180.491,543.059,183.588,539.604,183.588,535.674 C183.588,534.840,183.469,534.006,183.112,533.172 L182.516,531.743 L182.516,529.003 L183.707,529.003 C187.638,529.003,191.092,525.549,191.092,521.619 C191.092,517.688,187.638,514.353,183.707,514.353 Z M158.099,514.353 C160.600,503.395,163.101,492.556,163.339,491.007 L164.769,490.054 C165.841,496.010,166.794,507.087,167.389,514.353 Z" fill="#000" id="def-4f675e10-ca0e-47ff-b315-0e63b34a75c0"></path>
		<g id="def-41f16d58-3c83-4836-8207-1382d2d83d3d">
			<use xlink:href="#def-143f4dc9-58d6-47a1-a51d-64863d787e4e" stroke-width="0.000"></use>
		</g>
		<path d="M339.654,434.709 L339.654,434.709 Q341.606,433.561,345.567,432.528 Q349.529,431.495,353.547,431.495 L353.547,431.495 Q359.288,431.495,363.708,433.159 Q368.128,434.824,369.391,438.384 L369.391,438.384 Q371.458,444.354,373.869,452.276 Q376.280,460.198,378.691,468.637 Q381.103,477.076,383.399,485.285 Q385.695,493.495,387.417,499.809 L387.417,499.809 Q386.040,501.417,383.284,502.393 Q380.528,503.369,376.740,503.369 L376.740,503.369 Q373.984,503.369,372.090,502.909 Q370.195,502.450,368.990,501.532 Q367.784,500.613,367.038,499.120 Q366.291,497.628,365.717,495.676 L365.717,495.676 L363.651,487.754 L342.869,487.754 Q341.951,491.198,341.032,494.872 Q340.114,498.546,339.195,501.991 L339.195,501.991 Q337.588,502.565,335.808,502.967 Q334.029,503.369,331.503,503.369 L331.503,503.369 Q325.647,503.369,322.834,501.359 Q320.021,499.350,320.021,495.791 L320.021,495.791 Q320.021,494.183,320.480,492.576 Q320.940,490.969,321.514,488.787 L321.514,488.787 Q322.317,485.687,323.753,481.095 Q325.188,476.502,326.910,471.163 Q328.632,465.824,330.584,460.198 Q332.536,454.572,334.258,449.578 Q335.980,444.584,337.416,440.680 Q338.851,436.776,339.654,434.709 Z M354.121,449.521 L353.432,449.521 Q351.825,454.343,349.816,460.256 Q347.806,466.169,346.199,472.254 L346.199,472.254 L360.436,472.254 Q358.828,466.054,357.164,460.141 Q355.499,454.228,354.121,449.521 L354.121,449.521 Z M415.202,473.861 L415.202,487.869 Q416.810,488.328,419.336,488.500 Q421.862,488.672,424.158,488.672 L424.158,488.672 Q428.751,488.672,431.793,486.778 Q434.836,484.883,434.836,480.865 L434.836,480.865 Q434.836,477.076,432.310,475.469 Q429.784,473.861,424.617,473.861 L424.617,473.861 L415.202,473.861 Z M415.202,446.306 L415.202,459.854 L423.584,459.854 Q428.521,459.854,430.760,458.017 Q432.999,456.180,432.999,452.621 L432.999,452.621 Q432.999,449.521,430.415,447.684 Q427.832,445.846,422.665,445.846 L422.665,445.846 Q420.943,445.846,418.704,445.961 Q416.465,446.076,415.202,446.306 L415.202,446.306 Z M422.665,504.057 L422.665,504.057 Q420.713,504.057,418.073,503.943 Q415.432,503.828,412.619,503.483 Q409.806,503.139,407.051,502.622 Q404.295,502.106,401.999,501.187 L401.999,501.187 Q395.684,498.776,395.684,492.806 L395.684,492.806 L395.684,439.187 Q395.684,436.776,397.004,435.456 Q398.325,434.135,400.621,433.332 L400.621,433.332 Q404.525,431.954,410.380,431.322 Q416.236,430.691,422.436,430.691 L422.436,430.691 Q437.132,430.691,445.054,435.628 Q452.976,440.565,452.976,450.898 L452.976,450.898 Q452.976,456.065,449.991,459.796 Q447.006,463.528,441.954,465.250 L441.954,465.250 Q447.695,466.858,451.541,471.106 Q455.387,475.354,455.387,481.783 L455.387,481.783 Q455.387,493.150,446.949,498.604 Q438.510,504.057,422.665,504.057 Z M490.176,476.158 L485.354,474.550 Q480.302,472.828,476.169,471.048 Q472.036,469.269,469.050,466.743 Q466.065,464.217,464.400,460.715 Q462.736,457.213,462.736,452.161 L462.736,452.161 Q462.736,442.402,470.256,436.547 Q477.776,430.691,491.324,430.691 L491.324,430.691 Q496.261,430.691,500.510,431.380 Q504.758,432.069,507.800,433.504 Q510.843,434.939,512.565,437.178 Q514.287,439.417,514.287,442.402 L514.287,442.402 Q514.287,445.387,512.910,447.511 Q511.532,449.635,509.580,451.128 L509.580,451.128 Q507.054,449.521,502.806,448.315 Q498.558,447.109,493.506,447.109 L493.506,447.109 Q488.339,447.109,485.928,448.545 Q483.517,449.980,483.517,452.161 L483.517,452.161 Q483.517,453.884,485.010,454.974 Q486.502,456.065,489.487,456.983 L489.487,456.983 L495.573,458.935 Q506.365,462.380,512.163,467.719 Q517.961,473.058,517.961,482.243 L517.961,482.243 Q517.961,492.002,510.269,498.030 Q502.576,504.057,487.650,504.057 L487.650,504.057 Q482.369,504.057,477.834,503.196 Q473.299,502.335,469.912,500.670 Q466.524,499.006,464.630,496.537 Q462.736,494.069,462.736,490.854 L462.736,490.854 Q462.736,487.524,464.687,485.170 Q466.639,482.817,468.936,481.554 L468.936,481.554 Q472.150,484.080,476.800,485.917 Q481.450,487.754,486.961,487.754 L486.961,487.754 Q492.587,487.754,494.884,486.032 Q497.180,484.309,497.180,482.013 L497.180,482.013 Q497.180,479.717,495.343,478.511 Q493.506,477.306,490.176,476.158 L490.176,476.158 Z M541.728,448.717 L524.506,448.717 Q523.702,447.454,523.013,445.272 Q522.324,443.091,522.324,440.680 L522.324,440.680 Q522.324,436.202,524.334,434.250 Q526.343,432.298,529.558,432.298 L529.558,432.298 L579.617,432.298 Q580.420,433.561,581.109,435.743 Q581.798,437.924,581.798,440.335 L581.798,440.335 Q581.798,444.813,579.789,446.765 Q577.780,448.717,574.565,448.717 L574.565,448.717 L561.820,448.717 L561.820,501.761 Q560.558,502.106,557.859,502.450 Q555.161,502.794,552.521,502.794 L552.521,502.794 Q549.880,502.794,547.871,502.393 Q545.861,501.991,544.484,500.957 Q543.106,499.924,542.417,498.087 Q541.728,496.250,541.728,493.265 L541.728,493.265 L541.728,448.717 Z M616.472,479.717 L610.387,479.717 L610.387,501.761 Q609.124,502.106,606.426,502.450 Q603.728,502.794,601.087,502.794 L601.087,502.794 Q598.446,502.794,596.437,502.393 Q594.428,501.991,593.107,500.957 Q591.787,499.924,591.098,498.087 Q590.409,496.250,590.409,493.265 L590.409,493.265 L590.409,439.187 Q590.409,436.776,591.730,435.456 Q593.050,434.135,595.346,433.332 L595.346,433.332 Q599.250,431.954,604.417,431.322 Q609.583,430.691,615.439,430.691 L615.439,430.691 Q631.283,430.691,639.320,437.350 Q647.357,444.009,647.357,455.376 L647.357,455.376 Q647.357,462.495,643.683,467.546 Q640.009,472.598,634.957,475.354 L634.957,475.354 Q639.091,480.980,643.109,485.917 Q647.128,490.854,649.424,494.872 L649.424,494.872 Q648.276,498.891,645.233,501.015 Q642.191,503.139,638.402,503.139 L638.402,503.139 Q635.876,503.139,634.039,502.565 Q632.202,501.991,630.824,500.957 Q629.446,499.924,628.298,498.432 Q627.150,496.939,626.117,495.217 L626.117,495.217 L616.472,479.717 Z M610.272,464.446 L617.620,464.446 Q621.983,464.446,624.509,462.208 Q627.035,459.969,627.035,455.606 L627.035,455.606 Q627.035,451.243,624.222,449.004 Q621.409,446.765,615.324,446.765 L615.324,446.765 Q613.602,446.765,612.568,446.880 Q611.535,446.995,610.272,447.224 L610.272,447.224 L610.272,464.446 Z M673.994,434.709 L673.994,434.709 Q675.946,433.561,679.907,432.528 Q683.868,431.495,687.887,431.495 L687.887,431.495 Q693.628,431.495,698.048,433.159 Q702.468,434.824,703.731,438.384 L703.731,438.384 Q705.798,444.354,708.209,452.276 Q710.620,460.198,713.031,468.637 Q715.442,477.076,717.739,485.285 Q720.035,493.495,721.757,499.809 L721.757,499.809 Q720.379,501.417,717.624,502.393 Q714.868,503.369,711.079,503.369 L711.079,503.369 Q708.324,503.369,706.429,502.909 Q704.535,502.450,703.329,501.532 Q702.124,500.613,701.377,499.120 Q700.631,497.628,700.057,495.676 L700.057,495.676 L697.990,487.754 L677.209,487.754 Q676.291,491.198,675.372,494.872 Q674.453,498.546,673.535,501.991 L673.535,501.991 Q671.928,502.565,670.148,502.967 Q668.368,503.369,665.842,503.369 L665.842,503.369 Q659.987,503.369,657.174,501.359 Q654.361,499.350,654.361,495.791 L654.361,495.791 Q654.361,494.183,654.820,492.576 Q655.279,490.969,655.854,488.787 L655.854,488.787 Q656.657,485.687,658.092,481.095 Q659.528,476.502,661.250,471.163 Q662.972,465.824,664.924,460.198 Q666.876,454.572,668.598,449.578 Q670.320,444.584,671.755,440.680 Q673.191,436.776,673.994,434.709 Z M688.461,449.521 L687.772,449.521 Q686.165,454.343,684.155,460.256 Q682.146,466.169,680.539,472.254 L680.539,472.254 L694.776,472.254 Q693.168,466.054,691.503,460.141 Q689.839,454.228,688.461,449.521 L688.461,449.521 Z M765.501,446.650 L765.501,446.650 Q756.661,446.650,751.953,452.046 Q747.246,457.443,747.246,467.317 L747.246,467.317 Q747.246,477.306,752.470,482.702 Q757.694,488.098,766.535,488.098 L766.535,488.098 Q771.242,488.098,774.514,486.835 Q777.787,485.572,780.772,483.965 L780.772,483.965 Q782.724,485.572,783.814,487.811 Q784.905,490.050,784.905,493.035 L784.905,493.035 Q784.905,497.743,779.681,501.015 Q774.457,504.287,763.779,504.287 L763.779,504.287 Q756.087,504.287,749.313,502.106 Q742.538,499.924,737.487,495.389 Q732.435,490.854,729.507,483.907 Q726.579,476.961,726.579,467.317 L726.579,467.317 Q726.579,458.361,729.392,451.530 Q732.205,444.698,737.085,439.991 Q741.964,435.284,748.509,432.872 Q755.053,430.461,762.516,430.461 L762.516,430.461 Q773.079,430.461,778.877,433.906 Q784.675,437.350,784.675,442.747 L784.675,442.747 Q784.675,445.732,783.183,447.913 Q781.690,450.095,779.738,451.358 L779.738,451.358 Q776.753,449.406,773.366,448.028 Q769.979,446.650,765.501,446.650 Z M808.442,448.717 L791.220,448.717 Q790.416,447.454,789.727,445.272 Q789.038,443.091,789.038,440.680 L789.038,440.680 Q789.038,436.202,791.048,434.250 Q793.057,432.298,796.272,432.298 L796.272,432.298 L846.331,432.298 Q847.134,433.561,847.823,435.743 Q848.512,437.924,848.512,440.335 L848.512,440.335 Q848.512,444.813,846.503,446.765 Q844.494,448.717,841.279,448.717 L841.279,448.717 L828.535,448.717 L828.535,501.761 Q827.272,502.106,824.573,502.450 Q821.875,502.794,819.235,502.794 L819.235,502.794 Q816.594,502.794,814.585,502.393 Q812.575,501.991,811.198,500.957 Q809.820,499.924,809.131,498.087 Q808.442,496.250,808.442,493.265 L808.442,493.265 L808.442,448.717 Z M877.331,430.691 L877.331,430.691 Q883.875,430.691,888.927,432.356 Q893.979,434.021,897.538,436.891 Q901.097,439.761,902.934,443.665 Q904.771,447.569,904.771,452.046 L904.771,452.046 Q904.771,464.102,891.108,475.009 L891.108,475.009 L876.068,487.065 L903.623,487.065 Q904.312,488.328,904.944,490.280 Q905.575,492.232,905.575,494.528 L905.575,494.528 Q905.575,498.661,903.738,500.441 Q901.901,502.220,898.916,502.220 L898.916,502.220 L859.075,502.220 Q856.549,500.498,855.114,497.800 Q853.679,495.102,853.679,491.428 L853.679,491.428 Q853.679,487.524,855.286,484.826 Q856.894,482.128,858.846,480.520 L858.846,480.520 L874.690,466.972 Q877.675,464.446,879.627,462.437 Q881.579,460.428,882.784,458.821 Q883.990,457.213,884.507,455.835 Q885.023,454.458,885.023,453.195 L885.023,453.195 Q885.023,449.980,882.210,448.143 Q879.397,446.306,875.264,446.306 L875.264,446.306 Q870.671,446.306,867.055,447.741 Q863.438,449.176,861.027,450.784 L861.027,450.784 Q859.075,449.406,857.812,447.339 Q856.549,445.272,856.549,442.517 L856.549,442.517 Q856.549,436.547,862.175,433.619 Q867.801,430.691,877.331,430.691 Z M917.631,432.413 L957.586,432.413 Q959.538,433.676,961.088,435.915 Q962.638,438.154,962.638,441.484 L962.638,441.484 Q962.638,443.321,962.293,445.215 Q961.949,447.109,961.145,448.946 L961.145,448.946 L937.264,503.024 Q935.656,503.139,934.221,503.139 Q932.786,503.139,931.523,503.139 L931.523,503.139 Q926.357,503.139,923.142,501.187 Q919.927,499.235,919.927,494.413 L919.927,494.413 Q919.927,492.002,921.075,489.189 Q922.223,486.376,924.175,482.472 L924.175,482.472 L940.938,448.143 L912.808,448.143 Q912.120,446.880,911.431,444.813 Q910.742,442.747,910.742,440.450 L910.742,440.450 Q910.742,436.087,912.694,434.250 Q914.645,432.413,917.631,432.413 L917.631,432.413 Z" id="def-6eb8c3bc-e555-4257-bd0c-24d24ea19d84"></path>
		<path d="M320.575,540.222 L323.637,540.222 L323.744,544.908 Q325.342,542.299,327.738,540.994 Q330.135,539.689,333.064,539.689 L333.064,539.689 Q339.881,539.689,341.719,545.281 L341.719,545.281 Q343.263,542.592,345.846,541.140 Q348.429,539.689,351.545,539.689 L351.545,539.689 Q360.812,539.689,360.998,549.808 L360.998,549.808 L360.998,569.035 L357.803,569.035 L357.803,550.048 Q357.776,546.187,356.138,544.323 Q354.501,542.459,350.799,542.459 L350.799,542.459 Q347.364,542.512,344.994,544.682 Q342.624,546.852,342.358,549.968 L342.358,549.968 L342.358,569.035 L339.162,569.035 L339.162,549.808 Q339.136,546.107,337.418,544.283 Q335.700,542.459,332.132,542.459 L332.132,542.459 Q329.123,542.459,326.966,544.176 Q324.809,545.894,323.770,549.276 L323.770,549.276 L323.770,569.035 L320.575,569.035 L320.575,540.222 Z M386.224,569.567 L386.224,569.567 Q382.549,569.567,379.580,567.756 Q376.610,565.946,374.959,562.710 Q373.308,559.475,373.308,555.454 L373.308,555.454 L373.308,554.309 Q373.308,550.154,374.919,546.826 Q376.531,543.497,379.407,541.593 Q382.283,539.689,385.638,539.689 L385.638,539.689 Q390.884,539.689,393.959,543.271 Q397.035,546.852,397.035,553.057 L397.035,553.057 L397.035,554.841 L376.477,554.841 L376.477,555.454 Q376.477,560.353,379.287,563.616 Q382.096,566.878,386.357,566.878 L386.357,566.878 Q388.913,566.878,390.870,565.946 Q392.828,565.014,394.425,562.963 L394.425,562.963 L396.423,564.481 Q392.908,569.567,386.224,569.567 Z M385.638,542.405 L385.638,542.405 Q382.043,542.405,379.580,545.042 Q377.116,547.678,376.584,552.125 L376.584,552.125 L393.866,552.125 L393.866,551.779 Q393.733,547.625,391.496,545.015 Q389.259,542.405,385.638,542.405 Z M407.961,554.735 L407.961,554.362 Q407.961,547.651,410.956,543.670 Q413.952,539.689,419.092,539.689 L419.092,539.689 Q424.924,539.689,427.986,544.296 L427.986,544.296 L427.986,528.132 L431.155,528.132 L431.155,569.035 L428.172,569.035 L428.039,565.200 Q424.977,569.567,419.038,569.567 L419.038,569.567 Q414.059,569.567,411.010,565.559 Q407.961,561.552,407.961,554.735 L407.961,554.735 Z M411.183,554.921 L411.183,554.921 Q411.183,560.433,413.393,563.616 Q415.603,566.798,419.624,566.798 L419.624,566.798 Q425.509,566.798,427.986,561.605 L427.986,561.605 L427.986,548.077 Q425.509,542.459,419.678,542.459 L419.678,542.459 Q415.657,542.459,413.420,545.614 Q411.183,548.770,411.183,554.921 Z M449.110,540.222 L449.110,569.035 L445.915,569.035 L445.915,540.222 L449.110,540.222 Z M445.356,531.887 L445.356,531.887 Q445.356,530.981,445.942,530.355 Q446.527,529.730,447.539,529.730 Q448.551,529.730,449.150,530.355 Q449.750,530.981,449.750,531.887 Q449.750,532.792,449.150,533.405 Q448.551,534.017,447.539,534.017 Q446.527,534.017,445.942,533.405 Q445.356,532.792,445.356,531.887 Z M485.360,569.035 L481.952,569.035 Q481.473,567.676,481.339,565.014 L481.339,565.014 Q479.662,567.197,477.065,568.382 Q474.469,569.567,471.566,569.567 L471.566,569.567 Q467.412,569.567,464.842,567.250 Q462.273,564.934,462.273,561.392 L462.273,561.392 Q462.273,557.185,465.775,554.735 Q469.276,552.285,475.534,552.285 L475.534,552.285 L481.313,552.285 L481.313,549.009 Q481.313,545.920,479.409,544.149 Q477.505,542.379,473.857,542.379 L473.857,542.379 Q470.528,542.379,468.344,544.083 Q466.161,545.787,466.161,548.184 L466.161,548.184 L462.965,548.157 Q462.965,544.722,466.161,542.206 Q469.356,539.689,474.016,539.689 L474.016,539.689 Q478.836,539.689,481.619,542.099 Q484.402,544.509,484.482,548.823 L484.482,548.823 L484.482,562.457 Q484.482,566.638,485.360,568.715 L485.360,568.715 L485.360,569.035 Z M471.939,566.744 L471.939,566.744 Q475.135,566.744,477.651,565.200 Q480.168,563.655,481.313,561.072 L481.313,561.072 L481.313,554.735 L475.614,554.735 Q470.847,554.788,468.158,556.479 Q465.468,558.170,465.468,561.126 L465.468,561.126 Q465.468,563.549,467.266,565.147 Q469.063,566.744,471.939,566.744 Z" id="def-7df70a9b-17e6-4332-9eb9-c7e15821d78b"></path>
		<mask id="mask-7f566dea-c69d-4a6f-9fc6-42ba3c8d38b4" x="-3.008" y="333.474" width="333.052" height="333.052" maskUnits="userSpaceOnUse" stroke-width="0">
			<rect x="12.131" y="348.613" width="302.774" height="302.774" fill="#000"></rect>
			<use xlink:href="#def-41f16d58-3c83-4836-8207-1382d2d83d3d" fill="#fff" stroke="#fff"></use>
		</mask>
		<mask id="mask-f58b769c-b8ea-4459-8b96-42c5572d6de8" x="40.428" y="376.771" width="246.181" height="246.459" maskUnits="userSpaceOnUse" stroke-width="0">
			<rect x="51.618" y="387.961" width="223.801" height="224.079" fill="#000"></rect>
			<use xlink:href="#def-f4c1cde8-d606-4fa4-beea-fbc01eb3f9b6" fill="#fff" stroke="#fff"></use>
		</mask>
		<mask id="mask-aad00802-655b-4419-a2e6-53911d100971" x="308.139" y="418.649" width="666.311" height="97.450" maskUnits="userSpaceOnUse" stroke-width="0">
			<rect x="312.569" y="423.079" width="657.452" height="88.591" fill="#000"></rect>
			<use xlink:href="#def-6eb8c3bc-e555-4257-bd0c-24d24ea19d84" fill="#fff" stroke="#fff"></use>
		</mask>
		<mask id="mask-4f0f534f-6556-4d2c-bc1d-40b9c16df8a1" x="313.033" y="521.214" width="179.245" height="57.075" maskUnits="userSpaceOnUse" stroke-width="0">
			<rect x="315.628" y="523.808" width="174.057" height="51.887" fill="#000"></rect>
			<use xlink:href="#def-7df70a9b-17e6-4332-9eb9-c7e15821d78b" fill="#fff" stroke="#fff"></use>
		</mask>
	</defs>
	<g mask="url(#mask-7f566dea-c69d-4a6f-9fc6-42ba3c8d38b4)">
		<rect x="12.131" y="348.613" width="302.774" height="302.774" fill="#ffb828"></rect>
		<g mask="url(#mask-f58b769c-b8ea-4459-8b96-42c5572d6de8)">
			<rect x="51.618" y="387.961" width="223.801" height="224.079" fill="#ffffff"></rect>
		</g>
	</g>
	<g mask="url(#mask-aad00802-655b-4419-a2e6-53911d100971)">
		<rect x="312.569" y="423.079" width="657.452" height="88.591" fill="#6d6b7a"></rect>
	</g>
	<g mask="url(#mask-4f0f534f-6556-4d2c-bc1d-40b9c16df8a1)">
		<rect x="315.628" y="523.808" width="174.057" height="51.887" fill="#6d6b7a"></rect>
	</g>
</svg>
