<?xml version="1.0" encoding="UTF-8" standalone="no"?>
<svg version="1.1" preserveAspectRatio="xMidYMid meet" xmlns="http://www.w3.org/2000/svg" xmlns:xlink="http://www.w3.org/1999/xlink" viewBox="0 0 1000 1000" width="1000" height="1000">
	<defs>
		<path d="M492.740,168.889 A14.519,14.519 0 0 1 507.260,168.889 L783.121,328.157 A14.519,14.519 0 0 1 790.381,340.731 L790.381,659.269 A14.519,14.519 0 0 1 783.121,671.843 L507.260,831.111 A14.519,14.519 0 0 1 492.740,831.111 L216.879,671.843 A14.519,14.519 0 0 1 209.619,659.269 L209.619,340.731 A14.519,14.519 0 0 1 216.879,328.157 Z" stroke-linecap="round" stroke-linejoin="round" stroke-miterlimit="25" id="def-dcf6865e-80a0-471d-beda-b33475a2a6d7"></path>
		<g id="def-05e99807-4438-4572-a050-ccc30703fa4d">
			<path d="M252.156,500.000 A247.844,247.844 0 1 0 747.844,500.000 A247.844,247.844 0 1 0 252.156,500.000 Z M737.391,500.000 A237.391,237.391 0 1 1 262.609,500.000 A237.391,237.391 0 1 1 737.391,500.000 Z M276.378,500.000 A223.622,223.622 0 1 0 723.622,500.000 A223.622,223.622 0 1 0 276.378,500.000 Z" fill="#fff"></path>
			<use xlink:href="#def-0a89c307-e542-484c-9f48-65083ff7ddf6"></use>
		</g>
		<path d="M553.660,538.148 L549.228,538.148 C549.544,538.148,532.766,404.868,532.766,404.552 C532.766,385.874,525.168,377.959,513.138,377.959 C505.857,377.959,500.158,381.125,496.359,387.773 C493.827,387.140,491.611,386.823,489.395,386.823 C478.948,386.823,472.299,393.472,470.400,401.703 C456.787,428.612,426.712,568.223,426.712,601.780 C426.712,604.629,427.029,606.528,427.345,607.795 C429.561,615.076,431.777,622.041,437.792,622.041 C440.008,622.041,443.174,620.774,447.290,617.925 C449.506,618.875,452.038,619.192,454.254,619.192 C464.702,619.192,468.184,611.910,470.400,601.780 C471.033,598.931,473.566,589.750,476.415,577.087 L511.555,577.087 L511.555,584.685 C511.555,600.197,520.419,614.443,533.716,614.443 C545.112,614.443,553.343,605.262,553.343,594.815 C553.343,592.599,553.027,590.383,552.077,588.167 L550.494,584.368 L550.494,577.087 L553.660,577.087 C564.107,577.087,573.288,567.906,573.288,557.459 C573.288,547.012,564.107,538.148,553.660,538.148 Z M485.596,538.148 C492.244,509.022,498.892,480.214,499.525,476.098 L503.324,473.566 C506.173,489.395,508.706,518.836,510.289,538.148 Z" fill="#000" id="def-0a89c307-e542-484c-9f48-65083ff7ddf6"></path>
		<g id="def-bfd57e57-c2fe-4c9d-b092-c4d4821da501">
			<use xlink:href="#def-dcf6865e-80a0-471d-beda-b33475a2a6d7" stroke-width="0.000"></use>
		</g>
		<mask id="mask-ec122dbe-708c-4f89-b83c-4b3ebfb67665" x="57.401" y="57.401" width="885.199" height="885.199" maskUnits="userSpaceOnUse" stroke-width="0">
			<rect x="97.637" y="97.637" width="804.726" height="804.726" fill="#000"></rect>
			<use xlink:href="#def-bfd57e57-c2fe-4c9d-b092-c4d4821da501" fill="#fff" stroke="#fff"></use>
		</mask>
		<mask id="mask-c8c85b88-406f-4b0d-ad2a-551bc510335e" x="172.845" y="172.476" width="654.309" height="655.049" maskUnits="userSpaceOnUse" stroke-width="0">
			<rect x="202.587" y="202.217" width="594.827" height="595.566" fill="#000"></rect>
			<use xlink:href="#def-05e99807-4438-4572-a050-ccc30703fa4d" fill="#fff" stroke="#fff"></use>
		</mask>
	</defs>
	<rect id="background-shape-4314e57c-9292-45cb-a1fa-168138420967" x="0" y="0" width="1000" height="1000" fill="#ffffff"></rect>
	<g mask="url(#mask-ec122dbe-708c-4f89-b83c-4b3ebfb67665)">
		<rect x="97.637" y="97.637" width="804.726" height="804.726" fill="#ffb828"></rect>
		<g mask="url(#mask-c8c85b88-406f-4b0d-ad2a-551bc510335e)">
			<rect x="202.587" y="202.217" width="594.827" height="595.566" fill="#ffffff"></rect>
		</g>
	</g>
</svg>
